<?xml version="1.0" encoding="UTF-8"?>
<svg width="177.07mm" height="47.954mm" version="1.1" viewBox="0 0 177.07 47.954" xmlns="http://www.w3.org/2000/svg" xmlns:xlink="http://www.w3.org/1999/xlink">
 <g transform="translate(-20.085 -103.37)">
  <g transform="matrix(3.818 0 0 3.818 152.02 -827.24)">
   <g transform="translate(138.7 -20.852)" fill="#fff" stroke="#7c56dc" stroke-width=".2">
    <g font-family="'Open Sans'" font-size="10px" font-weight="bold" letter-spacing="-.5px">
	 <text transform="translate(-94.556 75.347)"><tspan x="-78.826172" y="199.09021">to</tspan></text>
     <text transform="translate(-84.266 74.768)"><tspan x="-78.826172" y="199.09021" font-style="italic">-</tspan></text>
     <text transform="translate(-81.038 75.33)"><tspan x="-78.826172" y="199.09021">do</tspan></text>
     <text transform="translate(-65.962 75.336)"><tspan x="-78.826172" y="199.09021" >due</tspan></text>
    </g>
    <path d="m-146.87 270.99c-0.25452 1.2781-0.40057 2.4448-0.9358 3.3737-0.38113 0.76519-1.2434 1.3208-2.1454 1.6496-1.0875 0.38586-9.3462 0.65458-10.433 0.85324 1.1114 0.16671 9.3298 0.24804 10.65 0.0683 1.1342-0.15152 2.3384-0.70032 3.1376-1.8103 0.83663-1.2492 1.1253-2.6728 1.3584-3.97 2e-3 -0.01 0.0219-0.12246 0.0237-0.1324 0.28739-1.3916 0.39631-2.6603 0.94539-3.6838 0.35414-0.75765 1.1614-1.3325 2.025-1.6676 1.0257-0.39066 11.464-0.47607 12.504-0.67599-1.0636-0.14953-11.472-0.40079-12.731-0.20815-1.104 0.16919-2.2546 0.74296-3.0022 1.8354-0.83236 1.2981-1.0965 2.7626-1.34 4.0879-0.01 0.0454-0.019 0.0908-0.0283 0.13616-0.01 0.0481-0.0196 0.096-0.0292 0.14395z"/>
   </g>
  </g>
 </g>
</svg>
